<svg width="128" height="128" viewBox="0 0 128 128" fill="none" xmlns="http://www.w3.org/2000/svg">
<g clip-path="url(#clip0_44_76)">
<path d="M64 128C99.3462 128 128 99.3462 128 64C128 28.6538 99.3462 0 64 0C28.6538 0 0 28.6538 0 64C0 99.3462 28.6538 128 64 128Z" fill="#FFD21B"/>
<path d="M39.35 65.1202C45.9609 65.1202 51.32 59.761 51.32 53.1502C51.32 46.5393 45.9609 41.1802 39.35 41.1802C32.7392 41.1802 27.38 46.5393 27.38 53.1502C27.38 59.761 32.7392 65.1202 39.35 65.1202Z" fill="#EAEAEA"/>
<path d="M87.69 65.1202C94.3008 65.1202 99.66 59.761 99.66 53.1502C99.66 46.5393 94.3008 41.1802 87.69 41.1802C81.0792 41.1802 75.72 46.5393 75.72 53.1502C75.72 59.761 81.0792 65.1202 87.69 65.1202Z" fill="#EAEAEA"/>
<path d="M54.43 82.5898C57.0755 82.5898 59.22 80.4452 59.22 77.7998C59.22 75.1543 57.0755 73.0098 54.43 73.0098C51.7846 73.0098 49.64 75.1543 49.64 77.7998C49.64 80.4452 51.7846 82.5898 54.43 82.5898Z" fill="#EAEAEA"/>
<path d="M72.38 82.5898C75.0254 82.5898 77.17 80.4452 77.17 77.7998C77.17 75.1543 75.0254 73.0098 72.38 73.0098C69.7346 73.0098 67.59 75.1543 67.59 77.7998C67.59 80.4452 69.7346 82.5898 72.38 82.5898Z" fill="#EAEAEA"/>
<path d="M64 84.6902C67.8052 84.6902 70.89 81.6054 70.89 77.8002C70.89 73.9949 67.8052 70.9102 64 70.9102C60.1947 70.9102 57.11 73.9949 57.11 77.8002C57.11 81.6054 60.1947 84.6902 64 84.6902Z" fill="#EAEAEA"/>
<path d="M46.49 35.4399C46.49 35.4399 60.37 35.4399 60.37 49.3199C60.37 73.0099 58.27 75.6399 58.27 75.6399" stroke="#EAEAEA" stroke-width="1.16" stroke-miterlimit="10"/>
<path d="M81.47 35.4399C81.47 35.4399 67.59 35.4399 67.59 49.3199C67.59 73.0099 69.69 75.6399 69.69 75.6399" stroke="#EAEAEA" stroke-width="1.16" stroke-miterlimit="10"/>
<path d="M19.8 82.5898C19.8 82.5898 60.81 109.93 107.08 82.5898" stroke="#EAEAEA" stroke-width="1.16" stroke-miterlimit="10"/>
<path d="M31.71 61.1499C36.1283 61.1499 39.71 57.5682 39.71 53.1499C39.71 48.7316 36.1283 45.1499 31.71 45.1499C27.2917 45.1499 23.71 48.7316 23.71 53.1499C23.71 57.5682 27.2917 61.1499 31.71 61.1499Z" fill="#331F1C"/>
<path d="M80.37 61.1499C84.7883 61.1499 88.37 57.5682 88.37 53.1499C88.37 48.7316 84.7883 45.1499 80.37 45.1499C75.9517 45.1499 72.37 48.7316 72.37 53.1499C72.37 57.5682 75.9517 61.1499 80.37 61.1499Z" fill="#331F1C"/>
</g>
<defs>
<clipPath id="clip0_44_76">
<rect width="128" height="128" fill="white"/>
</clipPath>
</defs>
</svg>
