<svg width="128" height="128" viewBox="0 0 128 128" fill="none" xmlns="http://www.w3.org/2000/svg">
<path d="M109.04 13.7C109.04 13.55 110.96 73.44 110.96 73.44H93.11L96.18 83.81L94.02 85.15L95.99 88.22L92.15 97.82C92.15 97.82 100.69 121.43 76.07 124.5C51.45 127.57 41.28 115.67 41.28 115.67" stroke="#331F1C" stroke-width="2" stroke-miterlimit="10"/>
<path d="M87.75 67.6499C84.52 65.1799 79.29 65.1799 76.06 67.6499" stroke="#331F1C" stroke-width="2" stroke-miterlimit="10"/>
<path d="M105.7 67.6499C102.47 65.1799 97.24 65.1799 94.01 67.6499" stroke="#331F1C" stroke-width="2" stroke-miterlimit="10"/>
<path d="M61.24 86.6898L75.25 78.8198L81.91 82.7598L85.23 78.8198L96.18 83.8098" stroke="#331F1C" stroke-width="2" stroke-miterlimit="10"/>
<path d="M94.01 85.1601L86.77 84.3901L81.91 86.6901L78.71 85.5401L65.27 86.6901" stroke="#331F1C" stroke-width="2" stroke-miterlimit="10"/>
<path d="M65.27 88.8002C65.08 88.8002 78.71 92.0602 78.71 92.0602L81.91 90.4302H90.03L95.98 88.2202" stroke="#331F1C" stroke-width="2" stroke-miterlimit="10"/>
<path d="M73.91 10.29L101.74 12.78L78.71 24.3" stroke="#331F1C" stroke-width="2" stroke-miterlimit="10"/>
<path d="M58.31 43.0798C46.84 34.2898 28.27 34.2898 16.8 43.0798" stroke="#331F1C" stroke-width="2" stroke-miterlimit="10"/>
<path d="M16.8 43.0801C28.27 51.8701 46.84 51.8701 58.31 43.0801" stroke="#331F1C" stroke-width="2" stroke-miterlimit="10"/>
<path d="M58.31 43.0802C46.84 28.2102 28.27 28.2102 16.8 43.0802" stroke="#331F1C" stroke-width="2" stroke-miterlimit="10"/>
<path d="M16.8 43.0801C28.27 57.9501 46.84 57.9501 58.31 43.0801" stroke="#331F1C" stroke-width="2" stroke-miterlimit="10"/>
<path d="M58.31 43.0802C46.84 28.2102 28.27 28.2102 16.8 43.0802" stroke="#331F1C" stroke-width="2" stroke-miterlimit="10"/>
<path d="M58.31 31.9299C46.84 23.1399 28.27 23.1399 16.8 31.9299" stroke="#331F1C" stroke-width="2" stroke-miterlimit="10"/>
<path d="M37.55 49.6902C41.2006 49.6902 44.16 46.7308 44.16 43.0802C44.16 39.4296 41.2006 36.4702 37.55 36.4702C33.8994 36.4702 30.94 39.4296 30.94 43.0802C30.94 46.7308 33.8994 49.6902 37.55 49.6902Z" stroke="#331F1C" stroke-width="2" stroke-miterlimit="10"/>
<path d="M37.55 46.3798C38.5551 46.3798 39.37 44.9023 39.37 43.0798C39.37 41.2572 38.5551 39.7798 37.55 39.7798C36.5448 39.7798 35.73 41.2572 35.73 43.0798C35.73 44.9023 36.5448 46.3798 37.55 46.3798Z" fill="#331F1C"/>
<path d="M106.37 12.1402C99.97 1.03015 83.03 1.28015 73.91 10.2902" stroke="#331F1C" stroke-width="2" stroke-miterlimit="10"/>
<path d="M78.47 24.2699C87.15 31.3899 103.85 20.6199 106.37 12.1299" stroke="#331F1C" stroke-width="2" stroke-miterlimit="10"/>
<path d="M81.55 22.0098C84.582 22.0098 87.04 19.5518 87.04 16.5198C87.04 13.4877 84.582 11.0298 81.55 11.0298C78.518 11.0298 76.06 13.4877 76.06 16.5198C76.06 19.5518 78.518 22.0098 81.55 22.0098Z" stroke="#331F1C" stroke-width="2" stroke-miterlimit="10"/>
<path d="M81.55 19.2598C82.3895 19.2598 83.07 18.033 83.07 16.5198C83.07 15.0065 82.3895 13.7798 81.55 13.7798C80.7106 13.7798 80.03 15.0065 80.03 16.5198C80.03 18.033 80.7106 19.2598 81.55 19.2598Z" fill="#331F1C"/>
</svg>
