<svg width="128" height="128" viewBox="0 0 128 128" fill="none" xmlns="http://www.w3.org/2000/svg">
<g clip-path="url(#clip0_44_88)">
<path d="M52.24 128C52.24 128 16.1 107.54 16.76 107.76C17.42 107.98 33.52 107.76 33.52 107.76L11.76 59.21L37.88 72.92L45.72 27.42L54.86 33.08L58.99 0L92.95 35.48L95.56 68.35L106.23 52.24L114.07 87.29L91.65 112.98L116.25 111.24L76.2 128H52.25H52.24Z" fill="#FF0000"/>
<path d="M52.9 128L23.07 80.1101L37.99 86.8601L47.24 61.3901L66.39 37.0101V21.3301L84.03 49.8501L81.2 76.8401L96.22 75.5401L91.21 96.0001L102.31 95.3501L93.39 110.8L68.57 128H52.9Z" fill="#FF9629"/>
<path d="M57.03 128C56.59 126.91 38.09 96.87 38.09 96.87L53.33 101.22L56.16 71.83C56.16 71.83 72.7 60.29 72.05 60.73C71.4 61.17 65.3 77.06 65.3 77.06L74.44 93.17L82.71 87.07L79.88 99.7L84.89 107.1L68.35 128H57.03Z" fill="#FFD21B"/>
<path d="M61.17 128L51.59 104.93L62.52 90.9902L75.97 104.93L66.63 128H61.17Z" fill="#FDF9AF"/>
</g>
<defs>
<clipPath id="clip0_44_88">
<rect width="128" height="128" fill="white"/>
</clipPath>
</defs>
</svg>
