<svg width="109" height="128" viewBox="0 0 109 128" fill="none" xmlns="http://www.w3.org/2000/svg">
<path d="M54.2282 112.042C78.7857 112.042 98.6935 104.15 98.6935 94.4154C98.6935 84.6807 78.7857 76.7891 54.2282 76.7891C29.6707 76.7891 9.76285 84.6807 9.76285 94.4154C9.76285 104.15 29.6707 112.042 54.2282 112.042Z" fill="#ADADAD"/>
<path d="M13.668 34.9688V66.0856C7.70377 66.0856 2.85785 61.2397 2.85785 55.2755V45.7789C2.85785 39.8147 7.70377 34.9688 13.668 34.9688Z" fill="#5B5B5B"/>
<path d="M94.5931 66.085V34.9681C100.557 34.9681 105.403 39.814 105.403 45.7782V55.2748C105.403 61.239 100.557 66.085 94.5931 66.085Z" fill="#5B5B5B"/>
<path d="M98.6935 44.7314H9.76285V94.4155H98.6935V44.7314Z" fill="#ADADAD"/>
<path d="M54.2282 88.9307C78.7857 88.9307 98.6935 69.0229 98.6935 44.4653C98.6935 19.9078 78.7857 0 54.2282 0C29.6707 0 9.76285 19.9078 9.76285 44.4653C9.76285 69.0229 29.6707 88.9307 54.2282 88.9307Z" fill="#ADADAD"/>
<path d="M54.1218 88.4341C67.9673 88.4341 79.1857 78.76 79.1857 66.8315H29.0757C29.0757 78.76 40.2941 88.4341 54.1396 88.4341H54.1218Z" fill="#8C8C8C"/>
<path d="M58.0446 75.3159H50.4296C47.3233 75.3159 44.8914 72.6711 45.1399 69.5825L47.1457 44.5719C47.3588 41.8028 49.6663 39.6904 52.4354 39.6904H56.0388C58.8079 39.6904 61.1155 41.8205 61.3285 44.5719L63.3343 69.5825C63.5828 72.6711 61.1333 75.3159 58.0446 75.3159Z" fill="#5B5B5B"/>
<path d="M32.8388 42.6726C42.5932 42.6726 50.5007 39.3825 50.5007 35.3239C50.5007 31.2652 42.5932 27.9751 32.8388 27.9751C23.0844 27.9751 15.1769 31.2652 15.1769 35.3239C15.1769 39.3825 23.0844 42.6726 32.8388 42.6726Z" fill="#231F20"/>
<path d="M32.8389 40.0454C35.4466 40.0454 37.5606 37.9314 37.5606 35.3237C37.5606 32.716 35.4466 30.6021 32.8389 30.6021C30.2312 30.6021 28.1172 32.716 28.1172 35.3237C28.1172 37.9314 30.2312 40.0454 32.8389 40.0454Z" fill="#F4DA5D"/>
<path d="M75.7776 42.6726C85.532 42.6726 93.4394 39.3825 93.4394 35.3239C93.4394 31.2652 85.532 27.9751 75.7776 27.9751C66.0232 27.9751 58.1157 31.2652 58.1157 35.3239C58.1157 39.3825 66.0232 42.6726 75.7776 42.6726Z" fill="#231F20"/>
<path d="M75.7775 40.0454C78.3852 40.0454 80.4991 37.9314 80.4991 35.3237C80.4991 32.716 78.3852 30.6021 75.7775 30.6021C73.1698 30.6021 71.0558 32.716 71.0558 35.3237C71.0558 37.9314 73.1698 40.0454 75.7775 40.0454Z" fill="#F4DA5D"/>
<path d="M9.9581 103.752H4.3844C1.96296 103.752 0 105.715 0 108.137C0 110.558 1.96296 112.521 4.3844 112.521H9.9581C12.3795 112.521 14.3425 110.558 14.3425 108.137C14.3425 105.715 12.3795 103.752 9.9581 103.752Z" fill="#ADADAD"/>
<path d="M24.7976 114.847H22.7741C20.3526 114.847 18.3896 116.81 18.3896 119.231C18.3896 121.653 20.3526 123.615 22.7741 123.615H24.7976C27.2191 123.615 29.182 121.653 29.182 119.231C29.182 116.81 27.2191 114.847 24.7976 114.847Z" fill="#ADADAD"/>
<path d="M103.93 105.083H98.3564C95.935 105.083 93.972 107.046 93.972 109.468C93.972 111.889 95.935 113.852 98.3564 113.852H103.93C106.352 113.852 108.315 111.889 108.315 109.468C108.315 107.046 106.352 105.083 103.93 105.083Z" fill="#ADADAD"/>
<path d="M98.9954 119.231H96.9718C94.5504 119.231 92.5874 121.194 92.5874 123.615C92.5874 126.037 94.5504 128 96.9718 128H98.9954C101.417 128 103.38 126.037 103.38 123.615C103.38 121.194 101.417 119.231 98.9954 119.231Z" fill="#ADADAD"/>
<path d="M81.7418 114.847H79.7182C77.2968 114.847 75.3338 116.81 75.3338 119.231C75.3338 121.653 77.2968 123.615 79.7182 123.615H81.7418C84.1633 123.615 86.1262 121.653 86.1262 119.231C86.1262 116.81 84.1633 114.847 81.7418 114.847Z" fill="#ADADAD"/>
</svg>
