<svg width="74" height="128" viewBox="0 0 74 128" fill="none" xmlns="http://www.w3.org/2000/svg">
<path d="M44.722 88.2989C44.722 83.9623 41.2065 80.4468 36.8698 80.4468C32.5332 80.4468 29.0177 83.9623 29.0177 88.2989V120.148C29.0177 124.485 32.5332 128 36.8698 128C41.2065 128 44.722 124.485 44.722 120.148V88.2989Z" fill="#A88B00"/>
<path d="M47.5407 0H26.1864C11.724 0 0 11.724 0 26.1864V62.4396C0 76.902 11.724 88.626 26.1864 88.626H47.5407C62.003 88.626 73.7271 76.902 73.7271 62.4396V26.1864C73.7271 11.724 62.003 0 47.5407 0Z" fill="#6161E5"/>
<path d="M54.8517 73.9537C54.8517 72.1676 53.4038 70.7197 51.6178 70.7197C49.8317 70.7197 48.3838 72.1676 48.3838 73.9537V103.299C48.3838 105.085 49.8317 106.533 51.6178 106.533C53.4038 106.533 54.8517 105.085 54.8517 103.299V73.9537Z" fill="#6161E5"/>
<path d="M59.0799 46.1439C62.8953 46.1439 65.9882 43.0509 65.9882 39.2355C65.9882 35.4201 62.8953 32.3271 59.0799 32.3271C55.2645 32.3271 52.1715 35.4201 52.1715 39.2355C52.1715 43.0509 55.2645 46.1439 59.0799 46.1439Z" fill="#8EC82E"/>
<path d="M16.2076 30.3138C20.023 30.3138 23.1159 27.2208 23.1159 23.4054C23.1159 19.5901 20.023 16.4971 16.2076 16.4971C12.3922 16.4971 9.29919 19.5901 9.29919 23.4054C9.29919 27.2208 12.3922 30.3138 16.2076 30.3138Z" fill="#8EC82E"/>
<path d="M36.8699 77.6155C51.1145 77.6155 62.6536 67.6619 62.6536 55.3804H11.0862C11.0862 67.6619 22.6253 77.6155 36.8699 77.6155Z" fill="#31318A"/>
<path d="M36.8699 72.5192C51.1145 72.5192 62.6536 64.8432 62.6536 55.3804H11.0862C11.0862 64.8432 22.6253 72.5192 36.8699 72.5192Z" fill="#252577"/>
<path d="M37.4738 24.8276H36.2658C32.784 24.8276 29.9614 27.6502 29.9614 31.132V44.3447C29.9614 47.8265 32.784 50.6491 36.2658 50.6491H37.4738C40.9556 50.6491 43.7782 47.8265 43.7782 44.3447V31.132C43.7782 27.6502 40.9556 24.8276 37.4738 24.8276Z" fill="#CC5151"/>
<path d="M24.8147 82.5103C24.8147 80.7243 23.3669 79.2764 21.5808 79.2764C19.7947 79.2764 18.3468 80.7243 18.3468 82.5103V94.729C18.3468 96.515 19.7947 97.9629 21.5808 97.9629C23.3669 97.9629 24.8147 96.515 24.8147 94.729V82.5103Z" fill="#6161E5"/>
</svg>
