<svg width="134" height="128" viewBox="0 0 134 128" fill="none" xmlns="http://www.w3.org/2000/svg">
<path d="M70.6941 15.9245L99.1427 0.969329C105.231 -2.22732 112.347 2.94515 111.19 9.72397L105.761 41.4013C105.295 44.1 106.195 46.8469 108.154 48.7584L131.173 71.1992C136.105 76.0022 133.374 84.3714 126.579 85.3673L94.7734 89.9936C92.0747 90.3791 89.7294 92.0819 88.5247 94.5396L74.2923 123.374C71.2403 129.542 62.4535 129.542 59.4014 123.374L45.1691 94.5396C43.9643 92.0819 41.619 90.3952 38.9204 89.9936L7.1145 85.3673C0.303551 84.3714 -2.41119 76.0022 2.52032 71.1992L25.5394 48.7584C27.4992 46.8469 28.3827 44.1 27.9329 41.4013L22.5034 9.72397C21.3468 2.94515 28.463 -2.22732 34.5511 0.969329L62.9996 15.9245C65.4252 17.1935 68.3006 17.1935 70.7262 15.9245H70.6941Z" fill="#D1BB37"/>
<path d="M66.8228 91.7445C83.8209 91.7445 97.6006 77.9649 97.6006 60.9668C97.6006 43.9687 83.8209 30.189 66.8228 30.189C49.8247 30.189 36.045 43.9687 36.045 60.9668C36.045 77.9649 49.8247 91.7445 66.8228 91.7445Z" fill="#87751F"/>
<path d="M66.8228 86.0741C83.8209 86.0741 97.6006 72.2944 97.6006 55.2963C97.6006 38.2982 83.8209 24.5186 66.8228 24.5186C49.8247 24.5186 36.045 38.2982 36.045 55.2963C36.045 72.2944 49.8247 86.0741 66.8228 86.0741Z" fill="#A88B00"/>
<path d="M66.8229 61.3358C80.3521 61.3358 91.3198 56.7689 91.3198 51.1354C91.3198 45.5019 80.3521 40.9351 66.8229 40.9351C53.2936 40.9351 42.3259 45.5019 42.3259 51.1354C42.3259 56.7689 53.2936 61.3358 66.8229 61.3358Z" fill="#5B5023"/>
<path d="M66.8871 57.3361C70.3115 57.3361 73.0876 54.5601 73.0876 51.1356C73.0876 47.7111 70.3115 44.9351 66.8871 44.9351C63.4626 44.9351 60.6865 47.7111 60.6865 51.1356C60.6865 54.5601 63.4626 57.3361 66.8871 57.3361Z" fill="#8EC82E"/>
<path d="M122.033 81.4963C125.458 81.4963 128.234 78.7202 128.234 75.2958C128.234 71.8713 125.458 69.0952 122.033 69.0952C118.609 69.0952 115.833 71.8713 115.833 75.2958C115.833 78.7202 118.609 81.4963 122.033 81.4963Z" fill="#A88B00"/>
<path d="M11.6124 81.4963C15.0369 81.4963 17.8129 78.7202 17.8129 75.2958C17.8129 71.8713 15.0369 69.0952 11.6124 69.0952C8.18794 69.0952 5.41187 71.8713 5.41187 75.2958C5.41187 78.7202 8.18794 81.4963 11.6124 81.4963Z" fill="#A88B00"/>
<path d="M33.1053 17.4665C36.5298 17.4665 39.3059 14.6904 39.3059 11.266C39.3059 7.84151 36.5298 5.06543 33.1053 5.06543C29.6809 5.06543 26.9048 7.84151 26.9048 11.266C26.9048 14.6904 29.6809 17.4665 33.1053 17.4665Z" fill="#A88B00"/>
<path d="M100.669 17.4665C104.093 17.4665 106.869 14.6904 106.869 11.266C106.869 7.84151 104.093 5.06543 100.669 5.06543C97.2443 5.06543 94.4683 7.84151 94.4683 11.266C94.4683 14.6904 97.2443 17.4665 100.669 17.4665Z" fill="#A88B00"/>
<path d="M66.8229 122.024C70.2473 122.024 73.0234 119.248 73.0234 115.824C73.0234 112.399 70.2473 109.623 66.8229 109.623C63.3984 109.623 60.6223 112.399 60.6223 115.824C60.6223 119.248 63.3984 122.024 66.8229 122.024Z" fill="#A88B00"/>
</svg>
