<svg width="76" height="128" viewBox="0 0 76 128" fill="none" xmlns="http://www.w3.org/2000/svg">
<path d="M11.2938 36.4771C13.7209 36.4771 15.6884 34.5096 15.6884 32.0825C15.6884 29.6555 13.7209 27.688 11.2938 27.688C8.8668 27.688 6.89929 29.6555 6.89929 32.0825C6.89929 34.5096 8.8668 36.4771 11.2938 36.4771Z" fill="#6161E5"/>
<path d="M11.2938 25.7867C13.7209 25.7867 15.6884 23.8192 15.6884 21.3921C15.6884 18.9651 13.7209 16.9976 11.2938 16.9976C8.8668 16.9976 6.89929 18.9651 6.89929 21.3921C6.89929 23.8192 8.8668 25.7867 11.2938 25.7867Z" fill="#6161E5"/>
<path d="M11.2938 15.0962C13.7209 15.0962 15.6884 13.1287 15.6884 10.7017C15.6884 8.27464 13.7209 6.30713 11.2938 6.30713C8.8668 6.30713 6.89929 8.27464 6.89929 10.7017C6.89929 13.1287 8.8668 15.0962 11.2938 15.0962Z" fill="#6161E5"/>
<path d="M15.6884 0C15.6884 2.42498 13.7188 4.39456 11.2938 4.39456C8.86887 4.39456 6.89929 2.42498 6.89929 0" fill="#6161E5"/>
<path d="M21.9843 25.7867C24.4113 25.7867 26.3788 23.8192 26.3788 21.3921C26.3788 18.9651 24.4113 16.9976 21.9843 16.9976C19.5572 16.9976 17.5897 18.9651 17.5897 21.3921C17.5897 23.8192 19.5572 25.7867 21.9843 25.7867Z" fill="#6161E5"/>
<path d="M21.9843 15.0962C24.4113 15.0962 26.3788 13.1287 26.3788 10.7017C26.3788 8.27464 24.4113 6.30713 21.9843 6.30713C19.5572 6.30713 17.5897 8.27464 17.5897 10.7017C17.5897 13.1287 19.5572 15.0962 21.9843 15.0962Z" fill="#6161E5"/>
<path d="M26.3788 0C26.3788 2.42498 24.4093 4.39456 21.9843 4.39456C19.5593 4.39456 17.5897 2.42498 17.5897 0" fill="#6161E5"/>
<path d="M32.6746 36.4771C35.1016 36.4771 37.0691 34.5096 37.0691 32.0825C37.0691 29.6555 35.1016 27.688 32.6746 27.688C30.2475 27.688 28.28 29.6555 28.28 32.0825C28.28 34.5096 30.2475 36.4771 32.6746 36.4771Z" fill="#6161E5"/>
<path d="M32.6746 25.7867C35.1016 25.7867 37.0691 23.8192 37.0691 21.3921C37.0691 18.9651 35.1016 16.9976 32.6746 16.9976C30.2475 16.9976 28.28 18.9651 28.28 21.3921C28.28 23.8192 30.2475 25.7867 32.6746 25.7867Z" fill="#6161E5"/>
<path d="M32.6746 15.0962C35.1016 15.0962 37.0691 13.1287 37.0691 10.7017C37.0691 8.27464 35.1016 6.30713 32.6746 6.30713C30.2475 6.30713 28.28 8.27464 28.28 10.7017C28.28 13.1287 30.2475 15.0962 32.6746 15.0962Z" fill="#6161E5"/>
<path d="M37.0691 0C37.0691 2.42498 35.0996 4.39456 32.6746 4.39456C30.2496 4.39456 28.28 2.42498 28.28 0" fill="#6161E5"/>
<path d="M43.3764 15.0962C45.8034 15.0962 47.7709 13.1287 47.7709 10.7017C47.7709 8.27464 45.8034 6.30713 43.3764 6.30713C40.9493 6.30713 38.9818 8.27464 38.9818 10.7017C38.9818 13.1287 40.9493 15.0962 43.3764 15.0962Z" fill="#6161E5"/>
<path d="M47.7596 0C47.7596 2.42498 45.79 4.39456 43.365 4.39456C40.94 4.39456 38.9705 2.42498 38.9705 0" fill="#6161E5"/>
<path d="M54.0668 36.4771C56.4938 36.4771 58.4614 34.5096 58.4614 32.0825C58.4614 29.6555 56.4938 27.688 54.0668 27.688C51.6398 27.688 49.6722 29.6555 49.6722 32.0825C49.6722 34.5096 51.6398 36.4771 54.0668 36.4771Z" fill="#6161E5"/>
<path d="M54.0668 25.7867C56.4938 25.7867 58.4614 23.8192 58.4614 21.3921C58.4614 18.9651 56.4938 16.9976 54.0668 16.9976C51.6398 16.9976 49.6722 18.9651 49.6722 21.3921C49.6722 23.8192 51.6398 25.7867 54.0668 25.7867Z" fill="#6161E5"/>
<path d="M54.0668 15.0962C56.4938 15.0962 58.4614 13.1287 58.4614 10.7017C58.4614 8.27464 56.4938 6.30713 54.0668 6.30713C51.6398 6.30713 49.6722 8.27464 49.6722 10.7017C49.6722 13.1287 51.6398 15.0962 54.0668 15.0962Z" fill="#6161E5"/>
<path d="M58.45 0C58.45 2.42498 56.4804 4.39456 54.0554 4.39456C51.6305 4.39456 49.6609 2.42498 49.6609 0" fill="#6161E5"/>
<path d="M64.7572 36.4771C67.1843 36.4771 69.1518 34.5096 69.1518 32.0825C69.1518 29.6555 67.1843 27.688 64.7572 27.688C62.3302 27.688 60.3627 29.6555 60.3627 32.0825C60.3627 34.5096 62.3302 36.4771 64.7572 36.4771Z" fill="#6161E5"/>
<path d="M64.7572 25.7867C67.1843 25.7867 69.1518 23.8192 69.1518 21.3921C69.1518 18.9651 67.1843 16.9976 64.7572 16.9976C62.3302 16.9976 60.3627 18.9651 60.3627 21.3921C60.3627 23.8192 62.3302 25.7867 64.7572 25.7867Z" fill="#6161E5"/>
<path d="M64.7572 15.0962C67.1843 15.0962 69.1518 13.1287 69.1518 10.7017C69.1518 8.27464 67.1843 6.30713 64.7572 6.30713C62.3302 6.30713 60.3627 8.27464 60.3627 10.7017C60.3627 13.1287 62.3302 15.0962 64.7572 15.0962Z" fill="#6161E5"/>
<path d="M69.1518 0C69.1518 2.42498 67.1822 4.39456 64.7572 4.39456C62.3323 4.39456 60.3627 2.42498 60.3627 0" fill="#6161E5"/>
<path d="M50.5146 127.989C45.6647 127.989 41.0196 125.928 37.7636 122.342C34.8718 119.165 33.2893 115.055 33.2893 110.763V43.4104C33.2893 40.8943 35.3272 38.8564 37.8433 38.8564C40.3593 38.8564 42.3972 40.8943 42.3972 43.4104V110.763C42.3972 112.79 43.1486 114.725 44.5034 116.228C46.0631 117.947 48.1921 118.892 50.5146 118.892C52.8371 118.892 54.9661 117.947 56.5258 116.228C58.2222 114.361 61.1025 114.224 62.9583 115.921C64.8254 117.617 64.962 120.497 63.2657 122.353C60.0096 125.939 55.3532 128 50.5146 128V127.989Z" fill="#8EC82E"/>
<path d="M34.8946 38.6172H40.9855C60.2373 38.6172 75.8687 54.2486 75.8687 73.5004H0C0 54.2486 15.6314 38.6172 34.8832 38.6172H34.8946Z" fill="#CC5151"/>
<path d="M22.0981 49.7861C22.0981 46.9285 21.0734 44.2986 19.3771 42.2607C12.2046 45.8242 6.4325 51.7899 3.11951 59.1103C5.11186 60.6473 7.60515 61.5695 10.3147 61.5695C16.8269 61.5695 22.0981 56.2869 22.0981 49.7861Z" fill="#F7CBCB"/>
<path d="M57.9832 43.0464C56.6512 44.959 55.8542 47.2816 55.8542 49.7862C55.8542 56.2984 61.1368 61.5696 67.6376 61.5696C69.6527 61.5696 71.554 61.0572 73.2162 60.1692C70.1992 52.8943 64.8028 46.8603 57.9832 43.0464Z" fill="#F7CBCB"/>
<path d="M38.9817 67.8534C43.3831 67.8534 46.9511 64.2853 46.9511 59.884C46.9511 55.4826 43.3831 51.9146 38.9817 51.9146C34.5804 51.9146 31.0123 55.4826 31.0123 59.884C31.0123 64.2853 34.5804 67.8534 38.9817 67.8534Z" fill="#F7CBCB"/>
<path d="M3.51789 79.1363C6.62596 80.6505 10.3602 79.3526 11.8744 76.2446C12.307 75.3679 12.5005 74.4344 12.5005 73.5122H0.0113525C0.0113525 75.8347 1.29784 78.0548 3.52927 79.1363H3.51789Z" fill="#682135"/>
<path d="M16.1893 79.1363C19.2973 80.6505 23.0316 79.3526 24.5458 76.2446C24.9784 75.3679 25.1719 74.4344 25.1719 73.5122H12.6827C12.6827 75.8347 13.9692 78.0548 16.2007 79.1363H16.1893Z" fill="#682135"/>
<path d="M28.8607 79.1363C31.9687 80.6505 35.703 79.3526 37.2172 76.2446C37.6498 75.3679 37.8433 74.4344 37.8433 73.5122H25.3541C25.3541 75.8347 26.6406 78.0548 28.872 79.1363H28.8607Z" fill="#682135"/>
<path d="M41.5434 79.1363C44.6515 80.6505 48.3857 79.3526 49.8999 76.2446C50.3325 75.3679 50.5261 74.4344 50.5261 73.5122H38.0369C38.0369 75.8347 39.3234 78.0548 41.5548 79.1363H41.5434Z" fill="#682135"/>
<path d="M54.2147 79.1363C57.3227 80.6505 61.057 79.3526 62.5712 76.2446C63.0038 75.3679 63.1973 74.4344 63.1973 73.5122H50.7081C50.7081 75.8347 51.9946 78.0548 54.226 79.1363H54.2147Z" fill="#682135"/>
<path d="M66.8861 79.1363C69.9941 80.6505 73.7284 79.3526 75.2425 76.2446C75.6752 75.3679 75.8687 74.4344 75.8687 73.5122H63.3795C63.3795 75.8347 64.666 78.0548 66.8974 79.1363H66.8861Z" fill="#682135"/>
<path d="M17.4189 68.6959C20.8708 68.6959 23.6692 65.8975 23.6692 62.4456C23.6692 58.9937 20.8708 56.1953 17.4189 56.1953C13.9669 56.1953 11.1686 58.9937 11.1686 62.4456C11.1686 65.8975 13.9669 68.6959 17.4189 68.6959Z" fill="#E27D7D"/>
<path d="M23.6464 54.7384C25.3189 54.7384 26.6748 53.3825 26.6748 51.71C26.6748 50.0375 25.3189 48.6816 23.6464 48.6816C21.9739 48.6816 20.618 50.0375 20.618 51.71C20.618 53.3825 21.9739 54.7384 23.6464 54.7384Z" fill="#E27D7D"/>
</svg>
