<svg width="111" height="128" viewBox="0 0 111 128" fill="none" xmlns="http://www.w3.org/2000/svg">
<path d="M55.2928 128C85.8302 128 110.586 99.3462 110.586 64C110.586 28.6538 85.8302 0 55.2928 0C24.7554 0 0 28.6538 0 64C0 99.3462 24.7554 128 55.2928 128Z" fill="#8EC82E"/>
<path d="M55.2928 30.1739C69.11 30.1739 80.311 24.3264 80.311 17.1131C80.311 9.89978 69.11 4.05225 55.2928 4.05225C41.4757 4.05225 30.2747 9.89978 30.2747 17.1131C30.2747 24.3264 41.4757 30.1739 55.2928 30.1739Z" fill="#CC5151"/>
<path d="M84.9497 58.5914C93.5212 50.02 97.5735 40.1751 94.0007 36.6024C90.428 33.0296 80.5831 37.0819 72.0117 45.6534C63.4402 54.2248 59.388 64.0696 62.9607 67.6424C66.5335 71.2151 76.3783 67.1629 84.9497 58.5914Z" fill="#231F20"/>
<path d="M48.3789 67.6418C51.9516 64.069 47.8994 54.2242 39.3279 45.6527C30.7565 37.0813 20.9117 33.029 17.3389 36.6018C13.7662 40.1745 17.8184 50.0193 26.3899 58.5908C34.9613 67.1623 44.8061 71.2145 48.3789 67.6418Z" fill="#231F20"/>
<path d="M48.9731 86.751C51.1116 86.751 52.8452 85.0174 52.8452 82.8789C52.8452 80.7404 51.1116 79.0068 48.9731 79.0068C46.8346 79.0068 45.101 80.7404 45.101 82.8789C45.101 85.0174 46.8346 86.751 48.9731 86.751Z" fill="#70932C"/>
<path d="M34.4075 116.965C36.546 116.965 38.2796 115.232 38.2796 113.093C38.2796 110.955 36.546 109.221 34.4075 109.221C32.269 109.221 30.5354 110.955 30.5354 113.093C30.5354 115.232 32.269 116.965 34.4075 116.965Z" fill="#A8CC50"/>
<path d="M61.6126 86.751C63.7511 86.751 65.4847 85.0174 65.4847 82.8789C65.4847 80.7404 63.7511 79.0068 61.6126 79.0068C59.4741 79.0068 57.7405 80.7404 57.7405 82.8789C57.7405 85.0174 59.4741 86.751 61.6126 86.751Z" fill="#70932C"/>
<path d="M23.3931 108.158C27.659 108.158 31.1172 104.7 31.1172 100.434C31.1172 96.1677 27.659 92.7095 23.3931 92.7095C19.1272 92.7095 15.6689 96.1677 15.6689 100.434C15.6689 104.7 19.1272 108.158 23.3931 108.158Z" fill="#A8CC50"/>
<path d="M40.1454 52.1226C44.4113 52.1226 47.8695 48.6644 47.8695 44.3985C47.8695 40.1325 44.4113 36.6743 40.1454 36.6743C35.8795 36.6743 32.4213 40.1325 32.4213 44.3985C32.4213 48.6644 35.8795 52.1226 40.1454 52.1226Z" fill="#8EC82E"/>
<path d="M70.4402 52.1226C74.7061 52.1226 78.1643 48.6644 78.1643 44.3985C78.1643 40.1325 74.7061 36.6743 70.4402 36.6743C66.1743 36.6743 62.7161 40.1325 62.7161 44.3985C62.7161 48.6644 66.1743 52.1226 70.4402 52.1226Z" fill="#8EC82E"/>
</svg>
